<svg viewBox="0 0 177 39" fill="none" xmlns="http://www.w3.org/2000/svg">
<path fill-rule="evenodd" clip-rule="evenodd" d="M8.66863 0H30.3402C35.1247 0 39.0088 3.88411 39.0088 8.66863V30.3314C39.0088 35.1159 35.1335 39 30.3402 39H8.66863C3.88411 39 0 35.1159 0 30.3314V8.66863C0 3.88411 3.88411 0 8.66863 0Z" fill="#EC2688"/>
<path d="M35.2661 18.9527L31.0907 8.85406C30.9935 8.60689 30.7552 8.448 30.4904 8.448C30.4021 8.448 30.3138 8.46565 30.2344 8.50096C29.9342 8.62455 29.7754 8.95117 29.846 9.2513C29.7577 9.7633 29.3958 11.7583 28.5572 13.0295L19.4207 17.6463L19.2353 17.1961L19.0676 16.79L18.6615 16.9577L18.1318 17.1784C17.8935 17.2755 17.717 17.4874 17.6287 17.7434C17.4874 17.7875 17.3109 17.8405 17.099 17.9111C16.9666 17.9552 16.8077 17.9729 16.6223 17.9729C15.819 17.9729 14.8215 17.5757 14.3007 17.3285C14.2301 17.2932 14.1506 17.249 14.08 17.2226L14.0712 17.1961L13.8858 17.1343C13.7093 17.0548 13.5239 16.9842 13.3385 16.9224C12.597 16.6488 11.829 16.5163 11.0433 16.5163C10.1518 16.5163 9.28667 16.6929 8.45688 17.0372C5.05828 18.4672 3.43402 22.3955 4.83759 25.7852C5.87041 28.2746 8.2715 29.8812 10.9727 29.8812C11.8643 29.8812 12.7294 29.7047 13.5592 29.3604C15.1305 28.6983 16.384 27.4801 17.0902 25.9265C17.1785 25.7499 17.2491 25.5734 17.3197 25.4057L17.3285 25.3968C17.3815 25.2468 17.4256 25.1144 17.4698 24.9819C17.9288 23.7461 18.5114 22.8457 19.0411 22.5632C19.2353 22.4573 19.403 22.3778 19.5266 22.3072C19.659 22.3778 19.8002 22.4131 19.9503 22.4131C20.0651 22.4131 20.171 22.3866 20.2769 22.3425L20.8066 22.1218L21.2038 21.9541L21.0361 21.5569L20.8507 21.0978L30.5522 17.8052C32.0352 18.1053 33.6948 19.2441 34.1097 19.5442C34.2244 19.7296 34.4363 19.8532 34.6658 19.8532C34.7541 19.8532 34.8423 19.8355 34.9218 19.8002C35.2484 19.6589 35.4073 19.2794 35.2661 18.9527Z" fill="white"/>
<path d="M56.558 24.1522L56.5933 32.5648H51.8971L51.8176 4.99646H56.5139L56.558 16.3928L63.4082 10.1253L66.4272 13.7269L59.1445 20.2328L69.4815 28.8484L66.4625 32.4501L56.558 24.1522Z" fill="currentcolor"/>
<path d="M70.1875 4.99646H74.8837L74.9632 32.5648H70.2669L70.1875 4.99646Z" fill="currentcolor"/>
<path d="M92.1592 28.8836C91.2412 29.8988 90.1995 30.7021 89.0255 31.2759C87.8514 31.8497 86.6597 32.2028 85.4591 32.3352C84.2586 32.4676 83.0934 32.3705 81.9546 32.0615C80.8159 31.7526 79.8095 31.1964 78.9179 30.4196C78.0264 29.634 77.3113 28.6276 76.764 27.3829C76.2167 26.1471 75.9519 24.6641 75.9784 22.9339C75.9784 21.3714 76.2608 19.9678 76.817 18.7408C77.3819 17.5138 78.1058 16.4721 78.9886 15.6247C79.8801 14.7772 80.8953 14.1328 82.0429 13.7091C83.1905 13.2766 84.3557 13.0735 85.5474 13.1C86.7391 13.1265 87.9044 13.4001 89.0519 13.921C90.1995 14.4418 91.2323 15.2274 92.1416 16.2691V13.0647H96.9614L97.0409 32.5647H92.1592V28.8836ZM92.1592 20.9742C90.9322 19.5882 89.6434 18.6613 88.3016 18.1935C86.9598 17.7256 85.7151 17.6109 84.5852 17.858C83.4465 18.1052 82.5196 18.6525 81.7869 19.5C81.0542 20.3474 80.6923 21.3979 80.6923 22.6514C80.6923 23.799 81.0012 24.8318 81.628 25.741C82.2547 26.6591 83.0934 27.2682 84.135 27.586C85.1767 27.8949 86.3949 27.8067 87.7808 27.3123C89.1667 26.818 90.6232 25.7322 92.1681 24.0638V20.9742H92.1592Z" fill="currentcolor"/>
<path d="M107.819 19.1381L113.345 12.6322L117.026 15.457L110.874 22.7397L117.026 29.9871L113.266 32.8031L107.819 26.3767L102.382 32.8031L98.6211 29.9871L104.765 22.7397L98.6211 15.457L102.302 12.6322L107.819 19.1381Z" fill="currentcolor"/>
<path d="M126.852 13.0294C128.441 13.0029 129.826 13.2677 131.001 13.8327C132.175 14.3977 133.146 15.1303 133.896 16.0484C134.655 16.9665 135.202 18.0081 135.538 19.1822C135.873 20.3562 136.023 21.5568 135.988 22.7838C135.953 24.0108 135.714 25.2114 135.282 26.3854C134.849 27.5595 134.231 28.61 133.419 29.5369C132.607 30.4638 131.627 31.2141 130.48 31.7879C129.332 32.3617 127.999 32.653 126.481 32.653C124.918 32.653 123.55 32.3793 122.385 31.832C121.22 31.2847 120.249 30.552 119.472 29.6428C118.686 28.7247 118.104 27.6831 117.733 26.509C117.353 25.335 117.168 24.1344 117.185 22.9074C117.194 21.6804 117.406 20.4798 117.812 19.3058C118.218 18.1317 118.827 17.0812 119.631 16.1543C120.443 15.2274 121.449 14.4859 122.65 13.921C123.868 13.3472 125.263 13.0559 126.852 13.0294ZM126.781 17.6462C125.836 17.6462 125.042 17.8227 124.389 18.1758C123.735 18.5289 123.215 18.988 122.826 19.5618C122.438 20.1355 122.164 20.7711 122.005 21.4773C121.846 22.1835 121.793 22.8897 121.846 23.5959C121.873 24.1962 121.996 24.7788 122.217 25.335C122.438 25.8999 122.756 26.3854 123.179 26.8003C123.594 27.2152 124.097 27.5418 124.689 27.7802C125.271 28.0185 125.951 28.1068 126.702 28.0538C127.408 28.0274 128.026 27.8685 128.564 27.586C129.103 27.2947 129.553 26.9327 129.932 26.4914C130.312 26.05 130.603 25.5468 130.815 24.9819C131.027 24.4169 131.151 23.8431 131.204 23.2428C131.257 22.5631 131.195 21.8922 131.027 21.2302C130.859 20.5681 130.586 19.9678 130.206 19.4293C129.826 18.8909 129.35 18.4671 128.776 18.1405C128.202 17.8139 127.531 17.6462 126.781 17.6462Z" fill="currentcolor"/>
<path d="M146.475 13.0294C148.064 13.0029 149.45 13.2677 150.624 13.8327C151.798 14.3977 152.769 15.1303 153.519 16.0484C154.278 16.9665 154.826 18.0081 155.161 19.1822C155.497 20.3562 155.656 21.5568 155.611 22.7838C155.576 24.0108 155.338 25.2114 154.905 26.3854C154.473 27.5595 153.855 28.61 153.043 29.5369C152.23 30.4638 151.251 31.2141 150.103 31.7879C148.955 32.3617 147.622 32.653 146.104 32.653C144.542 32.653 143.173 32.3793 142.008 31.832C140.843 31.2847 139.872 30.552 139.095 29.6428C138.309 28.7247 137.727 27.6831 137.356 26.509C136.976 25.335 136.791 24.1344 136.809 22.9074C136.818 21.6804 137.029 20.4798 137.436 19.3058C137.842 18.1317 138.451 17.0812 139.254 16.1543C140.066 15.2274 141.072 14.4859 142.273 13.921C143.482 13.3472 144.886 13.0559 146.475 13.0294ZM146.395 17.6462C145.46 17.6462 144.656 17.8227 144.003 18.1758C143.35 18.5289 142.829 18.988 142.432 19.5618C142.043 20.1355 141.77 20.7711 141.611 21.4773C141.452 22.1835 141.399 22.8897 141.452 23.5959C141.479 24.1962 141.602 24.7788 141.823 25.335C142.043 25.8999 142.361 26.3854 142.785 26.8003C143.2 27.2152 143.703 27.5418 144.294 27.7802C144.877 28.0185 145.557 28.1068 146.307 28.0538C147.013 28.0274 147.631 27.8685 148.17 27.586C148.708 27.2947 149.158 26.9327 149.538 26.4914C149.918 26.05 150.209 25.5468 150.421 24.9819C150.633 24.4169 150.756 23.8431 150.809 23.2428C150.862 22.5631 150.8 21.8922 150.633 21.2302C150.465 20.5681 150.191 19.9678 149.812 19.4293C149.432 18.8909 148.955 18.4671 148.382 18.1405C147.826 17.8139 147.155 17.6462 146.395 17.6462Z" fill="currentcolor"/>
<path d="M171.537 32.5646C171.537 31.726 171.554 30.7991 171.572 29.7663C171.598 28.7335 171.59 27.6919 171.554 26.6325C171.519 25.5732 171.431 24.5404 171.298 23.5164C171.166 22.5013 170.954 21.5832 170.654 20.7711C170.354 19.9589 169.956 19.2969 169.462 18.7761C168.968 18.2552 168.341 17.9551 167.582 17.8757C166.434 17.7432 165.34 17.9551 164.316 18.5024C163.283 19.0497 162.497 19.8883 161.95 21.0094V32.5646H157.254V13.3824H161.95V14.636C162.63 14.2475 163.415 13.8503 164.316 13.4619C165.216 13.0735 166.187 12.8528 167.238 12.7998C169.197 12.7733 170.804 13.2147 172.057 14.1328C173.311 15.0508 174.291 16.3661 174.997 18.0875C175.703 19.8089 176.162 21.901 176.365 24.355C176.577 26.8091 176.612 29.5545 176.48 32.5823H171.537" fill="currentcolor"/>
</svg>
