<?xml version="1.0" encoding="UTF-8"?>
<svg xmlns="http://www.w3.org/2000/svg" xmlns:xlink="http://www.w3.org/1999/xlink" id="Calque_2" viewBox="-27.825 -20 134.44 134.44">
  <defs>
    <radialGradient id="radial-gradient" cx="43.66" cy="52.33" fx="43.66" fy="52.33" r="13.82" gradientUnits="userSpaceOnUse">
      <stop offset="0" stop-color="#e2a246"></stop>
      <stop offset=".38" stop-color="#dc9f48"></stop>
      <stop offset=".83" stop-color="#ce9a4d"></stop>
      <stop offset="1" stop-color="#c79751"></stop>
    </radialGradient>
    <radialGradient id="radial-gradient-2" cx="34.99" cy="67.59" fx="34.99" fy="67.59" r="2.6" xlink:href="#radial-gradient"></radialGradient>
    <radialGradient id="radial-gradient-3" cx="38.04" cy="35.64" fx="38.04" fy="35.64" r="22.62" xlink:href="#radial-gradient"></radialGradient>
    <radialGradient id="radial-gradient-4" cx="43.66" cy="52.33" fx="43.66" fy="52.33" r="13.82" xlink:href="#radial-gradient"></radialGradient>
    <radialGradient id="radial-gradient-5" cx="34.99" cy="67.59" fx="34.99" fy="67.59" r="2.6" xlink:href="#radial-gradient"></radialGradient>
    <radialGradient id="radial-gradient-6" cx="38.04" cy="35.64" fx="38.04" fy="35.64" r="22.62" xlink:href="#radial-gradient"></radialGradient>
    <radialGradient id="radial-gradient-7" cx="29.89" cy="55.12" fx="29.89" fy="55.12" r="16.51" xlink:href="#radial-gradient"></radialGradient>
    <radialGradient id="radial-gradient-8" cx="29.42" cy="75.43" fx="29.42" fy="75.43" r="3.49" xlink:href="#radial-gradient"></radialGradient>
    <radialGradient id="radial-gradient-9" cx="16.25" cy="39.47" fx="16.25" fy="39.47" r="26.92" xlink:href="#radial-gradient"></radialGradient>
    <radialGradient id="radial-gradient-10" cx="29.89" cy="55.12" fx="29.89" fy="55.12" r="16.51" xlink:href="#radial-gradient"></radialGradient>
    <radialGradient id="radial-gradient-11" cx="29.42" cy="75.43" fx="29.42" fy="75.43" r="3.49" xlink:href="#radial-gradient"></radialGradient>
    <radialGradient id="radial-gradient-12" cx="16.25" cy="39.47" fx="16.25" fy="39.47" r="26.92" xlink:href="#radial-gradient"></radialGradient>
  </defs>
  <g id="Calque_1-2">
    <g>
      <g>
        <circle cx="42.22" cy="47.22" r="65" fill="#f9a751" />
      </g>
      <g>
        <g>
          <path d="M45.51,71.8s-3.35-9.14,1.83-18.69c4.05-7.47,5.81-9.12,3.66-13-2.15-3.88-7.67-20.93-1.37-38.13,0,0-7.39,4.73-6.77,16.01,0,0-2.33,2.02-3.19,4.06,0,0-3.24,2.69-3.6,5.31,0,0-2.78,3.04-2.7,5.3,0,0-2.1,2.59-1.97,4.53,0,0-2.62,3.15-2.4,5.78,0,0-1.98,4.05-1.05,6.27,0,0-1.54,3.82,.31,6.89,0,0-.99,5.23,3.05,8.54,0,0,1.47,9.85,14.21,7.12Z" style="fill:#63093a;"></path>
          <g>
            <path d="M39.67,70.51c.66,.1,1.44,.25,3.56-.13-1.7-7.51,1.61-16.7,5.85-23.05,.02-.03,1.94-2.87,1.29-5.43l-.42-1.04c-.92-2.26-1.69-4.54-2.32-6.83-1.93,2.12-1.82,5.96-1.65,7.69,.3,1.07,.7,1.9,1.23,2.75-.41-.47-.74-.89-1.12-1.51l-.19,.15c-.94,.73-1.03,2.56-.86,3.19,.18,.8,.56,1.48,.97,2.07-.55-.55-.84-.94-1.19-1.58h-.35c-2.15-.01-3.2,1.75-3.59,2.61,.07,1.04,.32,1.95,.7,2.87-.45-.69-.77-1.31-1.05-2.15-1.91,1.13-2.6,2.8-2.36,4.49,.3,1.01,.71,1.92,1.47,2.99-.61-.64-1.07-1.21-1.55-2.06-1.44,1.49-1.39,3.03-1.14,4,.61,1.27,1.32,2.1,2.3,2.93-.64-.41-1.22-.84-1.82-1.49l-.09,.14c-.88,1.27,.77,3.64,1.83,4.84,.43,.36,.83,.65,1.56,1.05-.47-.17-1.04-.39-1.63-.74l-.23,.18c-1.22,1-.57,3.76,.79,4.08Z" style="fill:url(#radial-gradient);"></path>
            <path d="M37.59,69.89c.03,.06,.06,.12,.09,.18-2.64-.77-4.97-2.26-5.4-4.97,1.45,.82,3.67,1.14,5.41,1.09-.07,.11-.14,.23-.2,.35-1.68,.1-3.19-.2-4.65-.71,1.24,.69,2.53,1.24,4.39,1.52-.02,.13-.04,.27-.05,.4-1.3-.02-2.65-.38-4.04-1.18,1.13,.96,2.38,1.64,4.06,1.98,.02,.16,.05,.31,.08,.47-1.5-.16-2.64-.67-3.78-1.61,1.16,1.36,2.6,2.17,4.08,2.46Z" style="fill:url(#radial-gradient-2);"></path>
            <path d="M33.79,34.27c.79,2.44,2.82,4.93,4.7,6.59-1.81-2.06-3.7-5.09-3.84-7.87h-.03c.05-.41,.34-2.28,1.74-3.89,.55,2.45,2.82,5.77,4.38,7.63-1.4-2.13-3.59-6.2-3.39-8.75h-.04c.03-.22,.34-2.47,2.24-4.27-.06,3.33,1.53,7.55,3.03,10.31-1.28-3.01-2.72-8.19-1.75-11.41h-.04c.12-.31,.95-2.36,2.32-3.6,.53,5.39,1.48,9.89,2.77,14.54-1.46-6.24-1.96-10.59-2.23-15.43-.07-1.55,.45-7.29,2.38-10.5,.74-1.23,1.27-2,1.65-2.49-1.84,5.98-2.54,13.29-1.65,20.72-.73-4.88-.7-9.25-.22-13.91-.94,6.58-.89,12.87,.57,19.67,.17,.79,.09,.43,.4,1.74-2.31-8.56-3.17-17.16-.37-25.65-3.15,8.64-2.47,17.56-.27,26.57,0,.01-.02,.03-.03,.04-1.93-5-2.83-9.37-3.23-14.34,.13,5.08,.77,8.99,2.17,13.69-1.42-3.48-2.28-6.48-2.93-10.56,.43,4.55,1.42,8.83,3.08,12.97-2.6-4.37-3.81-8.75-4.13-13.62,.06,5.27,1.16,10.03,3.97,14.98,0,.04-.01,.08-.02,.12-.9-1.16-1.59-2.25-2.22-3.41,.44,1.3,.92,2.47,1.61,3.78-2.88-4.07-4.47-7.82-5.43-12.89,.71,5.24,2.32,9.97,5.86,14.84,0,.06,0,.11,0,.16-3.69-4.25-5.64-8.62-6.76-13.52,.95,5.44,2.96,10.26,6.82,14.86,0,.01,0,.02,0,.03-1.49-1.19-2.63-2.43-3.69-3.78,1.18,2.03,2.49,3.66,3.78,4.91-.04,.04-.07,.08-.11,.12-3.71-3.18-6.6-6.96-8.91-11.65,2.1,4.96,4.75,8.83,8.44,12.37-.07,.15-.14,.31-.19,.46-4.09-3.16-6.94-7.1-9.01-11.58,1.89,4.8,4.53,8.81,8.79,12.5-.03,.17-.04,.34-.05,.49-2.79-1.66-4.64-3.72-6.13-6.43,1.28,2.91,3.09,5.22,5.61,7.04-.1,.02-.2,.05-.3,.08-3.79-2.14-7.1-5.59-9.34-10.23,1.77,4.28,4.31,7.72,8.43,10.63-.16,.09-.32,.2-.47,.31-3.48-2.02-6.48-5.12-8.59-9.42,1.6,3.88,3.87,7.05,7.78,9.9,.05,.04,.1,.07,.15,.1-.11,.11-.21,.23-.31,.35-1.32-.55-2.71-1.5-3.95-2.89,.92,1.46,1.98,2.59,3.47,3.56-.03,.05-.06,.1-.09,.15-3.36-2.14-6.07-4.78-8.35-7.61,2.01,2.9,4.39,5.68,7.98,8.37-.03,.06-.05,.13-.07,.19-3.7-2.01-6.36-4.62-8.56-7.94,1.67,2.96,3.28,4.88,5.83,7.02,.25,.21,1.26,1,2,1.46-.11,.09-.21,.18-.31,.28-3.24-1.29-6.17-3.78-8.27-7.45,1.83,3.83,4.26,6.23,7.7,8.1-.04,.05-.07,.09-.1,.14-2.75-.48-5.51-2.05-7.7-4.85,1.88,2.89,4.24,4.6,7.26,5.59-.07,.14-.13,.29-.18,.43-1.89-.39-3.81-1.43-5.02-2.61-.65-.61-.9-.92-1.25-1.37,.44,.7,.63,.95,1.11,1.51,1.13,1.37,3.05,2.67,4.94,3.28-.03,.16-.06,.31-.08,.5-2.96-.82-5.71-2.95-7.4-6.29,1.45,3.55,3.96,5.92,7.38,7.19,.01,.24,.04,.44,.07,.6-3.44-.47-6.55-2.98-7.64-6.91,.77,3.96,3.61,6.76,7.12,7.66-.08,.12-.16,.25-.23,.37-2.72-.14-5.48-1.59-7.28-4.46,.31,.62,.24,.49,.41,.77,1.42,2.38,3.91,4.07,6.51,4.49-.12,.33-.19,.65-.23,.96-2.43-.46-4.3-1.7-5.77-3.72,1.19,2.1,2.8,3.47,4.97,4.3,.35,.13,.66,.22,.76,.25,.02,.56,.13,1.11,.32,1.63-2.44-.73-3.94-1.88-5.45-3.72-.93-1.23-1.28-2.13-1.63-3.14,.18,.67,.44,1.69,1.14,2.88,.26,.44,.57,.91,.86,1.26,1.08,1.45,3.11,2.97,5.15,3.6-.03,.11-.06,.22-.08,.33-1.94-.14-4-.92-5.83-2.48,1.36,1.49,2.76,2.41,4.76,3.06,.22,.07,.8,.22,1.05,.26,.02,.22,.07,.44,.13,.66-1.81-.23-3.29-.82-4.84-2.09,1.42,1.54,3.12,2.55,5.15,2.95,.12,.27,.25,.53,.39,.77-.09,0-.59-.09-.66-.1-1.68-.37-2.65-.87-3.98-1.9-.85-.71-1.33-1.34-1.89-2.22,.48,.94,.89,1.61,1.7,2.43,1.13,1.07,1.93,1.61,3.45,2.21,.47,.18,1.35,.4,1.92,.46,.14,.21,.28,.39,.39,.53-.04,.05-.07,.09-.11,.14-1.97-.27-4.27-1.01-5.65-2.52l-.03,.03h0s-2.88-2.72-2.81-6c1.56,1.74,4.56,3.04,6.6,3.49-1.94-.71-4.51-2.25-5.82-4.06-.4-.58-.49-.82-.6-1.08l-.04,.02c-.09-.21-1.5-3.41-.77-5.46,1.34,2.27,4.62,4.02,6.42,4.66-1.54-.78-4.21-2.64-5.36-4.8-.26-.54-.31-.69-.44-1.17h-.04c-.07-.33-.56-2.94,.49-4.72,1.39,2.73,3.85,4.55,6.59,5.9-2.71-1.75-5.08-4.01-5.88-7.12h-.04c-.05-.27-.38-2.37,1.51-4.62,1.07,2.91,4.7,5.4,5.27,5.84-2.08-2.07-4.63-4.61-4.47-7.46h-.02c.27-.84,.71-2.01,1.16-2.81Z" style="fill:url(#radial-gradient-3);"></path>
          </g>
          <g>
            <path d="M47.62,34.02c.63,2.29,1.4,4.57,2.32,6.83l.42,1.04c.65,2.56-1.26,5.4-1.29,5.43-4.24,6.35-7.55,15.54-5.85,23.05-2.11,.38-2.9,.23-3.56,.13-1.36-.32-2.02-3.08-.79-4.08l.23-.18c.6,.35,1.16,.57,1.63,.74-.73-.4-1.13-.69-1.56-1.05-1.06-1.2-2.71-3.57-1.83-4.84l.09-.14c.6,.65,1.17,1.08,1.82,1.49-.98-.83-1.69-1.66-2.3-2.93-.26-.97-.31-2.5,1.14-4,.49,.85,.94,1.43,1.55,2.06-.76-1.08-1.18-1.98-1.47-2.99-.24-1.68,.44-3.35,2.36-4.49,.28,.84,.6,1.46,1.05,2.15-.39-.92-.63-1.83-.7-2.87,.39-.86,1.44-2.63,3.59-2.62h.35c.35,.64,.64,1.03,1.19,1.58-.41-.59-.79-1.28-.97-2.07-.17-.62-.08-2.45,.86-3.19l.19-.15c.38,.62,.7,1.03,1.12,1.51-.53-.85-.93-1.68-1.23-2.75-.17-1.73-.28-5.57,1.65-7.69Z" style="fill:url(#radial-gradient-4);"></path>
            <path d="M37.59,69.89c.03,.06,.06,.12,.09,.18-2.64-.77-4.97-2.26-5.4-4.97,1.45,.82,3.67,1.14,5.41,1.09-.07,.11-.14,.23-.2,.35-1.68,.1-3.19-.2-4.65-.71,1.24,.69,2.53,1.24,4.39,1.52-.02,.13-.04,.27-.05,.4-1.3-.02-2.65-.38-4.04-1.17,1.13,.96,2.38,1.64,4.06,1.98,.02,.16,.05,.31,.08,.47-1.5-.16-2.64-.67-3.78-1.61,1.16,1.36,2.6,2.17,4.08,2.46Z" style="fill:url(#radial-gradient-5);"></path>
            <path d="M40.74,36.73c-1.4-2.13-3.59-6.2-3.39-8.75h-.04c.03-.22,.34-2.47,2.24-4.27-.06,3.33,1.53,7.55,3.03,10.31-1.28-3.01-2.72-8.19-1.75-11.41h-.04c.12-.31,.95-2.36,2.32-3.6,.53,5.39,1.48,9.89,2.77,14.54-1.46-6.24-1.96-10.59-2.23-15.43-.07-1.55,.45-7.29,2.38-10.5,.74-1.23,1.27-2,1.65-2.49-1.84,5.98-2.54,13.29-1.65,20.72-.73-4.88-.7-9.25-.22-13.91-.94,6.58-.89,12.87,.57,19.67,.17,.79,.09,.43,.4,1.74-2.31-8.56-3.17-17.16-.37-25.65-3.15,8.64-2.47,17.56-.27,26.57,0,.01-.02,.03-.03,.04-1.93-5-2.83-9.37-3.23-14.34,.13,5.08,.77,8.99,2.17,13.69-1.42-3.48-2.28-6.48-2.93-10.56,.43,4.55,1.42,8.83,3.08,12.97-2.6-4.37-3.81-8.75-4.13-13.62,.06,5.27,1.16,10.03,3.97,14.98,0,.04-.01,.08-.02,.12-.9-1.16-1.59-2.25-2.22-3.41,.44,1.3,.92,2.47,1.61,3.78-2.88-4.07-4.47-7.82-5.43-12.89,.71,5.24,2.32,9.97,5.86,14.84,0,.06,0,.11,0,.16-3.69-4.25-5.64-8.62-6.76-13.52,.95,5.44,2.96,10.26,6.82,14.86,0,.01,0,.02,0,.03-1.49-1.19-2.63-2.43-3.69-3.78,1.18,2.03,2.49,3.66,3.78,4.91-.04,.04-.07,.08-.11,.12-3.71-3.18-6.6-6.96-8.91-11.65,2.1,4.96,4.75,8.83,8.44,12.37-.07,.15-.14,.31-.19,.46-4.09-3.16-6.94-7.1-9.01-11.58,1.89,4.8,4.53,8.81,8.79,12.5-.03,.17-.04,.34-.05,.49-2.79-1.66-4.64-3.72-6.13-6.43,1.28,2.91,3.09,5.22,5.61,7.04-.1,.02-.2,.05-.3,.08-3.79-2.14-7.1-5.59-9.34-10.23,1.77,4.28,4.31,7.72,8.43,10.63-.16,.09-.32,.2-.47,.31-3.48-2.02-6.48-5.12-8.59-9.42,1.6,3.88,3.87,7.05,7.78,9.9,.05,.04,.1,.07,.15,.1-.11,.11-.21,.23-.31,.35-1.32-.55-2.71-1.5-3.95-2.89,.92,1.46,1.98,2.59,3.47,3.56-.03,.05-.06,.1-.09,.15-3.36-2.14-6.07-4.78-8.35-7.61,2.01,2.9,4.39,5.68,7.98,8.37-.03,.06-.05,.13-.07,.19-3.7-2.01-6.36-4.62-8.56-7.94,1.67,2.96,3.28,4.88,5.83,7.02,.25,.21,1.26,1,2,1.46-.11,.09-.21,.18-.31,.28-3.24-1.29-6.17-3.78-8.27-7.45,1.83,3.83,4.26,6.23,7.7,8.1-.04,.05-.07,.09-.1,.14-2.75-.48-5.51-2.05-7.7-4.85,1.88,2.89,4.24,4.6,7.26,5.59-.07,.14-.13,.29-.18,.43-1.89-.39-3.81-1.43-5.02-2.61-.65-.61-.9-.92-1.25-1.37,.44,.7,.63,.95,1.11,1.51,1.13,1.37,3.05,2.67,4.94,3.28-.03,.16-.06,.31-.08,.5-2.96-.82-5.71-2.95-7.4-6.29,1.45,3.55,3.96,5.92,7.38,7.19,.01,.24,.04,.44,.07,.6-3.44-.47-6.55-2.98-7.64-6.91,.77,3.96,3.61,6.76,7.12,7.66-.08,.12-.16,.25-.23,.37-2.72-.14-5.48-1.59-7.28-4.46,.31,.62,.24,.49,.41,.77,1.42,2.38,3.91,4.07,6.51,4.49-.12,.33-.19,.65-.23,.96-2.43-.46-4.3-1.7-5.77-3.72,1.19,2.1,2.8,3.47,4.97,4.3,.35,.13,.66,.22,.76,.25,.02,.56,.13,1.11,.32,1.63-2.44-.73-3.94-1.88-5.45-3.72-.93-1.23-1.28-2.13-1.63-3.14,.18,.67,.44,1.69,1.14,2.88,.26,.44,.57,.91,.86,1.26,1.08,1.45,3.11,2.97,5.15,3.6-.03,.11-.06,.22-.08,.33-1.94-.14-4-.92-5.83-2.48,1.36,1.49,2.76,2.41,4.76,3.06,.22,.07,.8,.22,1.05,.26,.02,.22,.07,.44,.13,.66-1.81-.23-3.29-.82-4.84-2.09,1.42,1.54,3.12,2.55,5.15,2.95,.12,.27,.25,.53,.39,.77-.09,0-.59-.09-.66-.1-1.68-.37-2.65-.87-3.98-1.9-.85-.71-1.33-1.34-1.89-2.22,.48,.94,.89,1.61,1.7,2.43,1.13,1.07,1.93,1.61,3.45,2.21,.47,.18,1.35,.4,1.92,.46,.14,.21,.28,.39,.39,.53-.04,.05-.07,.09-.11,.14-1.97-.27-4.27-1.01-5.65-2.52l-.03,.03h0s-2.88-2.72-2.81-6c1.56,1.74,4.56,3.04,6.6,3.49-1.94-.71-4.51-2.25-5.82-4.06-.4-.58-.49-.82-.6-1.08l-.04,.02c-.09-.21-1.5-3.41-.77-5.46,1.34,2.27,4.62,4.02,6.42,4.66-1.54-.78-4.21-2.64-5.36-4.8-.26-.54-.31-.69-.44-1.17h-.04c-.07-.33-.56-2.94,.49-4.72,1.39,2.73,3.85,4.55,6.59,5.9-2.71-1.75-5.08-4.01-5.88-7.12h-.04c-.05-.27-.38-2.37,1.51-4.62,1.07,2.91,4.7,5.4,5.27,5.84-2.08-2.07-4.63-4.61-4.47-7.46h-.02c.27-.84,.71-2.01,1.16-2.81,.79,2.44,2.82,4.93,4.7,6.59-1.81-2.06-3.7-5.09-3.84-7.87h-.03c.05-.41,.34-2.28,1.74-3.89,.55,2.45,2.82,5.77,4.38,7.63Z" style="fill:url(#radial-gradient-6);"></path>
            <path d="M47.2,44.47c-.53-.85-.93-1.68-1.23-2.75-.17-1.73-.28-5.57,1.65-7.69,.63,2.29,1.4,4.57,2.32,6.83l.42,1.04c.65,2.56-1.26,5.4-1.29,5.43-4.24,6.35-7.55,15.54-5.85,23.05-2.11,.38-2.9,.23-3.56,.13-1.36-.32-2.02-3.08-.79-4.08l.23-.18c.6,.35,1.16,.57,1.63,.74-.73-.4-1.13-.69-1.56-1.05-1.06-1.2-2.71-3.57-1.83-4.84l.09-.14c.6,.65,1.17,1.08,1.82,1.49-.98-.83-1.69-1.66-2.3-2.93-.26-.97-.31-2.5,1.14-4,.49,.85,.94,1.43,1.55,2.06-.76-1.08-1.18-1.98-1.47-2.99-.24-1.68,.44-3.35,2.36-4.49,.28,.84,.6,1.46,1.05,2.15-.39-.92-.63-1.83-.7-2.87,.39-.86,1.44-2.63,3.59-2.62h.35c.35,.64,.64,1.03,1.19,1.58-.41-.59-.79-1.28-.97-2.07-.17-.62-.08-2.45,.86-3.19l.19-.15c.38,.62,.7,1.03,1.12,1.51Zm-13.69,22.96c1.16,1.36,2.6,2.17,4.08,2.46,.03,.06,.06,.12,.09,.18-2.64-.77-4.97-2.26-5.4-4.97,1.45,.82,3.67,1.14,5.41,1.09-.07,.11-.14,.23-.2,.35-1.68,.1-3.19-.2-4.65-.71,1.24,.69,2.53,1.24,4.39,1.52-.02,.13-.04,.27-.05,.4-1.3-.02-2.65-.38-4.04-1.17,1.13,.96,2.38,1.64,4.06,1.98,.02,.16,.05,.31,.08,.47-1.5-.16-2.64-.67-3.78-1.61Zm1.1-34.43c.05-.41,.34-2.29,1.74-3.9,.55,2.45,2.82,5.77,4.38,7.63-1.4-2.13-3.59-6.2-3.39-8.75h-.04c.03-.22,.34-2.47,2.24-4.27-.06,3.33,1.53,7.55,3.03,10.31-1.28-3.01-2.72-8.19-1.75-11.41h-.04c.12-.31,.95-2.36,2.32-3.6,.53,5.39,1.48,9.89,2.77,14.54-1.46-6.24-1.96-10.59-2.23-15.43-.07-1.55,.45-7.29,2.38-10.5,.74-1.23,1.27-2,1.65-2.49-1.84,5.98-2.54,13.29-1.65,20.72-.73-4.88-.7-9.25-.22-13.91-.94,6.58-.89,12.87,.57,19.67,.17,.79,.09,.43,.4,1.74-2.31-8.56-3.17-17.16-.37-25.65-3.15,8.64-2.47,17.56-.27,26.57,0,.01-.02,.03-.03,.04-1.93-5-2.83-9.37-3.23-14.34,.13,5.08,.77,8.99,2.17,13.69-1.42-3.48-2.28-6.48-2.93-10.56,.43,4.55,1.42,8.83,3.08,12.97-2.6-4.37-3.81-8.75-4.13-13.62,.06,5.27,1.16,10.03,3.97,14.98,0,.04-.01,.08-.02,.12-.9-1.16-1.59-2.25-2.22-3.41,.44,1.3,.92,2.47,1.61,3.78-2.88-4.07-4.47-7.82-5.43-12.89,.71,5.24,2.32,9.97,5.86,14.84,0,.06,0,.11,0,.16-3.69-4.25-5.64-8.62-6.76-13.52,.95,5.44,2.96,10.26,6.82,14.86,0,.01,0,.02,0,.03-1.49-1.19-2.63-2.43-3.69-3.78,1.18,2.03,2.49,3.66,3.78,4.91-.04,.04-.07,.08-.11,.12-3.71-3.18-6.6-6.96-8.91-11.65,2.1,4.96,4.75,8.83,8.44,12.37-.07,.15-.14,.31-.19,.46-4.09-3.16-6.94-7.1-9.01-11.58,1.89,4.8,4.53,8.81,8.79,12.5-.03,.17-.04,.34-.05,.49-2.79-1.66-4.64-3.72-6.13-6.43,1.28,2.91,3.09,5.22,5.61,7.04-.1,.02-.2,.05-.3,.08-3.79-2.14-7.1-5.59-9.34-10.23,1.77,4.28,4.31,7.72,8.43,10.63-.16,.09-.32,.2-.47,.31-3.48-2.02-6.48-5.12-8.59-9.42,1.6,3.88,3.87,7.05,7.78,9.9,.05,.04,.1,.07,.15,.1-.11,.11-.21,.23-.31,.35-1.32-.55-2.71-1.5-3.95-2.89,.92,1.46,1.98,2.59,3.47,3.56-.03,.05-.06,.1-.09,.15-3.36-2.14-6.07-4.78-8.35-7.61,2.01,2.9,4.39,5.68,7.98,8.37-.03,.06-.05,.13-.07,.19-3.7-2.01-6.36-4.62-8.56-7.94,1.67,2.96,3.28,4.88,5.83,7.02,.25,.21,1.26,1,2,1.46-.11,.09-.21,.18-.31,.28-3.24-1.29-6.17-3.78-8.27-7.45,1.83,3.83,4.26,6.23,7.7,8.1-.04,.05-.07,.09-.1,.14-2.75-.48-5.51-2.05-7.7-4.85,1.88,2.89,4.24,4.6,7.26,5.59-.07,.14-.13,.29-.18,.43-1.89-.39-3.81-1.43-5.02-2.61-.65-.61-.9-.92-1.25-1.37,.44,.7,.63,.95,1.11,1.51,1.13,1.37,3.05,2.67,4.94,3.28-.03,.16-.06,.31-.08,.5-2.96-.82-5.71-2.95-7.4-6.29,1.45,3.55,3.96,5.92,7.38,7.19,.01,.24,.04,.44,.07,.6-3.44-.47-6.55-2.98-7.64-6.91,.77,3.96,3.61,6.76,7.12,7.66-.08,.12-.16,.25-.23,.37-2.72-.14-5.48-1.59-7.28-4.46,.31,.62,.24,.49,.41,.77,1.42,2.38,3.91,4.07,6.51,4.49-.12,.33-.19,.65-.23,.96-2.43-.46-4.3-1.7-5.77-3.72,1.19,2.1,2.8,3.47,4.97,4.3,.35,.13,.66,.22,.76,.25,.02,.56,.13,1.11,.32,1.63-2.44-.73-3.94-1.88-5.45-3.72-.93-1.23-1.28-2.13-1.63-3.14,.18,.67,.44,1.69,1.14,2.88,.26,.44,.57,.91,.86,1.26,1.08,1.45,3.11,2.97,5.15,3.6-.03,.11-.06,.22-.08,.33-1.94-.14-4-.92-5.83-2.48,1.36,1.49,2.76,2.41,4.76,3.06,.22,.07,.8,.22,1.05,.26,.02,.22,.07,.44,.13,.66-1.81-.23-3.29-.82-4.84-2.09,1.42,1.54,3.12,2.55,5.15,2.95,.12,.27,.25,.53,.39,.77-.09,0-.59-.09-.66-.1-1.68-.37-2.65-.87-3.98-1.9-.85-.71-1.33-1.34-1.89-2.22,.48,.94,.89,1.61,1.7,2.43,1.13,1.07,1.93,1.61,3.45,2.21,.47,.18,1.35,.4,1.92,.46,.14,.21,.28,.39,.39,.53-.04,.05-.07,.09-.11,.14-1.97-.27-4.27-1.01-5.65-2.52l-.03,.03h0s-2.88-2.72-2.81-6c1.56,1.74,4.56,3.04,6.6,3.49-1.94-.71-4.51-2.25-5.82-4.06-.4-.58-.49-.82-.6-1.08l-.04,.02c-.09-.21-1.5-3.41-.77-5.46,1.34,2.27,4.62,4.02,6.42,4.66-1.54-.78-4.21-2.64-5.36-4.8-.26-.54-.31-.69-.44-1.17h-.04c-.07-.33-.56-2.94,.49-4.72,1.39,2.73,3.85,4.55,6.59,5.9-2.71-1.75-5.08-4.01-5.88-7.12h-.04c-.05-.27-.38-2.37,1.51-4.62,1.07,2.91,4.7,5.4,5.27,5.84-2.08-2.07-4.63-4.61-4.47-7.46h-.02c.27-.84,.71-2.01,1.16-2.81,.79,2.44,2.82,4.93,4.7,6.59-1.81-2.06-3.7-5.09-3.84-7.87h-.03Z" style="fill:#ffebcf;"></path>
          </g>
        </g>
        <path d="M73.26,53.03c-.14-.6-.63-1.04-1.24-1.14-.2-.03-.4-.02-.6,.03-.73,.18-1.2,.86-1.15,1.58-.37,1.15-1.92,5.6-4.29,8.23l-22.66,7.37-.27-1.1-.24-.98-.98,.24-1.3,.32c-.59,.15-1.07,.56-1.35,1.12-.35,.05-.77,.12-1.28,.2-.32,.05-.7,.04-1.12-.02-1.84-.28-3.98-1.56-5.11-2.3-.16-.11-.31-.22-.46-.33v-.07s-.42-.21-.42-.21c-.38-.24-.77-.47-1.18-.68-1.6-.88-3.33-1.47-5.13-1.75-2.04-.32-4.11-.22-6.13,.29-8.32,2.08-13.45,10.52-11.42,18.82,1.48,6.09,6.44,10.63,12.64,11.59,2.04,.32,4.11,.22,6.13-.29,3.85-.96,7.16-3.32,9.33-6.65,.26-.38,.5-.75,.71-1.12h0s.02-.03,.02-.03c.17-.32,.33-.61,.47-.91,1.48-2.68,3.15-4.55,4.46-4.99,.49-.17,.89-.31,1.21-.42,.28,.21,.6,.34,.94,.39,.26,.04,.53,.03,.78-.03l1.3-.32,.97-.24-.24-.97-.27-1.11,23.46-4.14c3.3,1.21,6.71,4.41,7.57,5.26,.2,.47,.64,.82,1.16,.9,.2,.03,.4,.02,.6-.03,.81-.2,1.31-1.02,1.11-1.83l-6.01-24.68Z" style="fill:#63093a;"></path>
        <g>
          <path d="M42.89,73.72s-9.41-7.09-10.42-20.21c-.79-10.26-.08-13.1-4.82-15.63C22.92,35.35,6.1,21.63,1.2,0c0,0-4.41,9.67,3.64,20.73,0,0-1.05,3.59-.58,6.23,0,0-1.53,4.87-.18,7.76,0,0-.83,4.92,.74,7.16,0,0-.43,4.02,.97,5.9,0,0-.6,4.93,1.36,7.45,0,0,.65,5.42,3.05,7.07,0,0,.94,4.9,4.85,6.81,0,0,2.44,5.97,8.71,6.68,0,0,7.97,9.05,19.13-2.09Z" style="fill:#63093a;"></path>
          <g>
            <path d="M36.11,76.25c.73-.33,1.64-.69,3.53-2.47-6.67-6.52-9.33-18.04-9.19-27.29,0-.05,.08-4.19-2.26-6.37l-1.11-.78c-2.42-1.7-4.71-3.51-6.85-5.43-.57,3.43,2.07,7.26,3.37,8.91,1.01,.89,1.96,1.48,3.06,2-.73-.21-1.34-.42-2.12-.8l-.1,.28c-.47,1.36,.64,3.28,1.22,3.81,.71,.69,1.54,1.14,2.35,1.47-.92-.19-1.47-.41-2.25-.82l-.36,.23c-2.19,1.4-2.1,3.89-1.93,5.02,.75,1.01,1.6,1.77,2.6,2.46-.91-.41-1.65-.83-2.49-1.5-1.2,2.41-.8,4.56,.55,6.11,.97,.83,1.98,1.48,3.46,2.07-1.04-.25-1.88-.53-2.93-1.08-.49,2.47,.58,4,1.47,4.81,1.46,.89,2.72,1.27,4.26,1.46-.92,0-1.79-.05-2.83-.33v.2c-.07,1.87,3.16,3.2,5.03,3.72,.67,.08,1.27,.11,2.28,.04-.59,.14-1.31,.28-2.14,.32l-.11,.33c-.59,1.82,1.89,4.2,3.49,3.62Z" style="fill:url(#radial-gradient-7);"></path>
            <path d="M33.58,76.99c.07,.04,.14,.09,.21,.13-3.19,.95-6.54,.97-8.76-1.51,2.02-.12,4.48-1.26,6.22-2.44,0,.16,0,.32,.03,.49-1.64,1.2-3.38,1.89-5.2,2.33,1.71-.11,3.39-.41,5.47-1.34,.06,.15,.13,.3,.21,.44-1.33,.83-2.95,1.36-4.88,1.46,1.78,.23,3.5,.11,5.43-.65,.12,.15,.25,.29,.39,.42-1.63,.82-3.13,1.06-4.9,.85,2.07,.63,4.06,.5,5.77-.18Z" style="fill:url(#radial-gradient-8);"></path>
            <path d="M6.31,43.25c2.4,1.97,6.1,3.16,9.11,3.62-3.2-.91-7.11-2.75-9.08-5.48l-.03,.03c-.22-.45-1.16-2.55-.79-5.11,2.16,2.13,6.66,4.02,9.47,4.88-2.83-1.25-7.73-3.95-9.19-6.67l-.05,.03c-.12-.24-1.27-2.73-.52-5.81,2.12,3.43,6.52,6.67,9.86,8.5-3.28-2.22-8.15-6.54-9.28-10.45h-.05c-.08-.36-.58-3,0-5.16,4.08,5.14,8,9.09,12.37,12.98-5.59-5.39-8.95-9.48-12.41-14.23-1.09-1.53-4.33-7.71-4.48-12.25-.06-1.73-.02-2.87,.04-3.62,2.06,7.3,6.15,15.18,11.94,22.16-3.95-4.48-6.79-8.95-9.36-14,3.37,7.31,7.56,13.68,13.5,19.63,.7,.7,.37,.38,1.55,1.51C10.94,26.6,4.42,18.42,1.68,7.94c2.47,10.86,9.03,19.49,17.18,27.2,0,.02,0,.04,0,.06-5.25-3.81-9.03-7.68-12.71-12.47,3.47,5.08,6.69,8.64,11.21,12.5-3.73-2.61-6.58-5.09-9.92-8.82,3.43,4.34,7.25,8.05,11.65,11.17-5.52-2.73-9.62-6.4-13.15-11.14,3.52,5.32,7.77,9.44,13.88,12.63,.02,.04,.04,.09,.06,.13-1.68-.58-3.09-1.24-4.5-2.01,1.3,1.03,2.56,1.91,4.13,2.79-5.61-2.25-9.69-5.02-14-9.54,4.16,4.86,8.91,8.62,15.71,11.24,.04,.06,.07,.11,.11,.17-6.54-1.9-11.4-5.06-15.77-9.31,4.54,4.91,9.75,8.5,16.7,10.63,0,0,.02,.02,.02,.03-2.3-.24-4.27-.74-6.24-1.42,2.53,1.29,4.94,2.09,7.08,2.51-.01,.06-.02,.13-.03,.19-5.86-.79-11.28-2.74-16.72-6,5.4,3.67,10.63,5.86,16.71,7.04,.03,.2,.06,.4,.11,.59-6.24-.53-11.73-2.66-16.77-5.86,5.08,3.64,10.4,5.98,17.16,6.94,.09,.19,.18,.37,.27,.54-3.93,.14-7.17-.74-10.46-2.51,3.22,2.12,6.58,3.28,10.34,3.48-.09,.09-.17,.18-.25,.28-5.26,.31-10.89-1.03-16.22-4.26,4.61,3.19,9.46,5.02,15.56,5.27-.1,.2-.19,.41-.27,.62-4.86,.24-9.95-.95-14.92-3.94,4.17,2.89,8.57,4.63,14.42,4.95,.08,0,.15,0,.22,0-.04,.19-.06,.37-.08,.55-1.7,.31-3.75,.26-5.91-.34,1.89,.88,3.72,1.33,5.87,1.35,0,.07,0,.14,0,.21-4.83,.03-9.32-.88-13.5-2.25,3.95,1.63,8.2,2.9,13.62,3.27,.02,.08,.03,.16,.05,.24-5.09,.39-9.5-.53-13.92-2.46,3.65,1.92,6.54,2.81,10.54,3.32,.39,.05,1.94,.18,2.99,.18-.05,.16-.1,.33-.13,.48-4.14,.82-8.77,.21-13.31-2.15,4.39,2.7,8.43,3.54,13.15,3.18,0,.07,0,.14-.01,.21-3.12,1.32-6.95,1.54-11.02,.13,3.81,1.71,7.33,1.9,11.06,.91,.02,.19,.06,.38,.09,.55-2.17,.85-4.82,1.05-6.82,.65-1.07-.19-1.52-.35-2.18-.57,.91,.42,1.26,.55,2.12,.81,2.05,.65,4.86,.71,7.17,.09,.07,.18,.15,.35,.25,.56-3.55,1.11-7.74,.75-11.66-1.54,3.8,2.66,7.92,3.42,12.23,2.46,.17,.23,.33,.42,.46,.57-3.8,1.78-8.62,1.27-12.31-2.01,3.39,3.52,8.11,4.5,12.27,3.12,0,.18,0,.36,.01,.53-2.85,1.64-6.61,1.98-10.33,.25,.72,.42,.57,.34,.92,.51,3.01,1.49,6.65,1.57,9.57,.3,.1,.41,.24,.79,.39,1.13-2.78,1.12-5.5,1.1-8.32,.01,2.59,1.35,5.13,1.68,7.88,1.11,.44-.1,.82-.21,.94-.25,.39,.56,.87,1.05,1.39,1.45-2.96,.87-5.24,.68-7.98-.2-1.76-.63-2.7-1.33-3.72-2.13,.62,.56,1.56,1.43,3.06,2.18,.55,.27,1.18,.55,1.71,.72,2.05,.76,5.11,.98,7.61,.28,.04,.13,.08,.26,.14,.39-2.07,1.14-4.67,1.69-7.56,1.31,2.37,.62,4.38,.64,6.85-.02,.27-.07,.95-.3,1.24-.43,.17,.21,.36,.4,.56,.59-2,.96-3.89,1.33-6.3,1.05,2.45,.63,4.85,.55,7.18-.39,.3,.2,.6,.37,.9,.53-.1,.05-.66,.3-.73,.33-1.95,.73-3.27,.86-5.3,.68-1.33-.17-2.23-.49-3.38-1.02,1.1,.64,1.96,1.05,3.33,1.35,1.85,.35,3.02,.36,4.96-.02,.6-.13,1.64-.48,2.26-.79,.28,.12,.54,.21,.75,.28,0,.07-.01,.14-.01,.21-2.19,1.02-5.01,1.77-7.4,1.15v.05s-.02,0-.02,0c-.05,0-4.71-.87-6.79-4.25,2.73,.75,6.63,.09,9.01-.79-2.44,.55-6.07,.67-8.59-.3-.79-.33-1.04-.52-1.32-.7l-.03,.05c-.24-.15-3.77-2.48-4.37-5.05,2.86,1.43,7.34,1.05,9.59,.52-2.08,.21-6.02,.08-8.61-1.36-.62-.37-.78-.5-1.22-.89l-.03,.04c-.3-.3-2.51-2.64-2.61-5.13,3.21,1.86,6.9,2.1,10.58,1.67-3.91,0-7.8-.73-10.66-3.37l-.03,.04c-.24-.25-1.95-2.17-1.5-5.7,3,2.25,8.33,2.4,9.19,2.48-3.48-.74-7.73-1.64-9.45-4.65h-.02c-.28-1.01-.59-2.5-.66-3.6Z" style="fill:url(#radial-gradient-9);"></path>
          </g>
          <g>
            <path d="M20.22,33.91c2.14,1.92,4.43,3.73,6.85,5.43l1.11,.78c2.35,2.18,2.26,6.32,2.26,6.37-.14,9.25,2.53,20.77,9.19,27.29-1.9,1.78-2.8,2.14-3.53,2.47-1.59,.58-4.07-1.81-3.49-3.62l.11-.33c.84-.04,1.55-.18,2.14-.32-1.01,.07-1.6,.04-2.28-.04-1.87-.52-5.1-1.85-5.04-3.72v-.2c1.05,.27,1.91,.33,2.84,.33-1.54-.2-2.81-.57-4.26-1.46-.9-.81-1.96-2.34-1.47-4.81,1.05,.55,1.9,.83,2.93,1.08-1.48-.59-2.5-1.24-3.46-2.07-1.35-1.56-1.75-3.7-.55-6.11,.84,.67,1.57,1.09,2.49,1.5-1-.68-1.85-1.45-2.6-2.46-.17-1.13-.26-3.62,1.93-5.02l.36-.23c.78,.42,1.32,.63,2.25,.82-.81-.33-1.64-.78-2.35-1.47-.58-.52-1.69-2.44-1.22-3.81l.1-.28c.79,.38,1.4,.59,2.12,.8-1.09-.52-2.05-1.1-3.06-2-1.31-1.65-3.95-5.48-3.37-8.91Z" style="fill:url(#radial-gradient-10);"></path>
            <path d="M33.58,76.99c.07,.04,.14,.09,.21,.13-3.19,.95-6.54,.97-8.76-1.51,2.02-.12,4.48-1.26,6.22-2.44,0,.16,0,.32,.03,.49-1.64,1.2-3.38,1.89-5.2,2.33,1.71-.11,3.39-.41,5.47-1.34,.06,.15,.13,.3,.21,.44-1.33,.83-2.95,1.36-4.88,1.46,1.78,.23,3.5,.11,5.43-.65,.12,.15,.25,.29,.39,.42-1.63,.82-3.13,1.06-4.9,.85,2.07,.63,4.06,.5,5.77-.18Z" style="fill:url(#radial-gradient-11);"></path>
            <path d="M14.99,41.19c-2.83-1.25-7.73-3.95-9.19-6.67l-.05,.03c-.12-.24-1.27-2.73-.52-5.81,2.12,3.43,6.52,6.67,9.86,8.5-3.28-2.22-8.15-6.54-9.28-10.45h-.05c-.08-.36-.58-3,0-5.16,4.08,5.14,8,9.09,12.37,12.98-5.59-5.39-8.95-9.48-12.41-14.23-1.09-1.53-4.33-7.71-4.48-12.25-.06-1.73-.02-2.87,.04-3.62,2.06,7.3,6.15,15.18,11.94,22.16-3.95-4.48-6.79-8.95-9.36-14,3.37,7.31,7.56,13.68,13.5,19.63,.7,.7,.37,.38,1.55,1.51C10.94,26.6,4.42,18.42,1.68,7.94c2.47,10.86,9.03,19.49,17.18,27.2,0,.02,0,.04,0,.06-5.25-3.81-9.03-7.68-12.71-12.47,3.47,5.08,6.69,8.64,11.21,12.5-3.73-2.61-6.58-5.09-9.92-8.82,3.43,4.34,7.25,8.05,11.65,11.17-5.52-2.73-9.62-6.4-13.15-11.14,3.52,5.32,7.77,9.44,13.88,12.63,.02,.04,.04,.09,.06,.13-1.68-.58-3.09-1.24-4.5-2.01,1.3,1.03,2.56,1.91,4.13,2.79-5.61-2.25-9.69-5.02-14-9.54,4.16,4.86,8.91,8.62,15.71,11.24,.04,.06,.07,.11,.11,.17-6.54-1.9-11.4-5.06-15.77-9.31,4.54,4.91,9.75,8.5,16.7,10.63,0,0,.02,.02,.02,.03-2.3-.24-4.27-.74-6.24-1.42,2.53,1.29,4.94,2.09,7.08,2.51-.01,.06-.02,.13-.03,.19-5.86-.79-11.28-2.74-16.72-6,5.4,3.67,10.63,5.86,16.71,7.04,.02,.2,.06,.4,.11,.59-6.24-.53-11.73-2.66-16.77-5.86,5.08,3.64,10.4,5.98,17.16,6.94,.09,.19,.18,.37,.27,.54-3.93,.14-7.17-.74-10.46-2.51,3.22,2.12,6.58,3.28,10.34,3.48-.09,.09-.17,.18-.25,.28-5.26,.31-10.89-1.03-16.22-4.26,4.61,3.19,9.46,5.02,15.56,5.27-.1,.2-.19,.41-.27,.62-4.86,.24-9.95-.95-14.92-3.94,4.17,2.89,8.57,4.63,14.42,4.95,.08,0,.15,0,.22,0-.04,.19-.06,.37-.08,.55-1.7,.31-3.75,.26-5.91-.34,1.89,.88,3.72,1.33,5.87,1.35,0,.07,0,.14,0,.21-4.83,.03-9.32-.88-13.5-2.25,3.95,1.63,8.2,2.9,13.62,3.27,.02,.08,.03,.16,.05,.24-5.09,.39-9.5-.53-13.92-2.46,3.65,1.92,6.54,2.81,10.54,3.32,.39,.05,1.94,.18,2.99,.18-.05,.16-.1,.33-.13,.48-4.14,.82-8.77,.21-13.31-2.15,4.39,2.7,8.43,3.54,13.15,3.18,0,.07,0,.14-.01,.21-3.12,1.32-6.95,1.54-11.02,.13,3.81,1.71,7.33,1.9,11.06,.91,.02,.19,.06,.38,.09,.55-2.17,.85-4.82,1.05-6.82,.65-1.07-.19-1.52-.35-2.18-.57,.91,.42,1.26,.55,2.12,.81,2.05,.65,4.86,.71,7.17,.09,.07,.18,.15,.35,.25,.56-3.55,1.11-7.74,.75-11.66-1.54,3.8,2.66,7.92,3.42,12.23,2.46,.17,.23,.33,.42,.46,.57-3.8,1.78-8.62,1.27-12.31-2.01,3.39,3.52,8.11,4.5,12.27,3.12,0,.18,0,.36,.01,.53-2.85,1.64-6.61,1.98-10.33,.25,.72,.42,.57,.34,.92,.51,3.01,1.49,6.65,1.57,9.57,.3,.1,.41,.24,.79,.39,1.13-2.78,1.12-5.5,1.1-8.32,.01,2.59,1.35,5.13,1.68,7.88,1.11,.44-.1,.82-.21,.94-.25,.39,.56,.87,1.05,1.39,1.45-2.96,.87-5.24,.68-7.98-.2-1.76-.63-2.7-1.33-3.72-2.13,.62,.56,1.56,1.43,3.06,2.18,.55,.27,1.18,.55,1.71,.72,2.05,.76,5.11,.98,7.61,.28,.04,.13,.08,.26,.14,.39-2.07,1.14-4.67,1.69-7.56,1.31,2.37,.62,4.38,.64,6.85-.02,.27-.07,.95-.3,1.24-.43,.17,.21,.36,.4,.56,.59-2,.96-3.89,1.33-6.3,1.05,2.45,.63,4.85,.55,7.18-.39,.3,.2,.6,.37,.9,.53-.1,.05-.66,.3-.73,.33-1.95,.73-3.27,.86-5.3,.68-1.33-.17-2.23-.49-3.38-1.02,1.1,.64,1.96,1.05,3.33,1.35,1.85,.35,3.02,.36,4.96-.02,.6-.13,1.64-.48,2.26-.79,.28,.12,.54,.21,.75,.28,0,.07-.01,.14-.01,.21-2.19,1.02-5.01,1.77-7.4,1.15v.05s-.02,0-.02,0c-.05,0-4.71-.87-6.79-4.25,2.73,.75,6.63,.09,9.01-.79-2.44,.55-6.07,.67-8.59-.3-.79-.33-1.04-.52-1.32-.7l-.03,.05c-.24-.15-3.77-2.48-4.37-5.05,2.86,1.43,7.34,1.05,9.59,.52-2.08,.21-6.02,.08-8.61-1.36-.62-.37-.78-.5-1.22-.89l-.03,.04c-.3-.3-2.51-2.64-2.61-5.13,3.21,1.86,6.9,2.1,10.58,1.67-3.91,0-7.8-.73-10.66-3.37l-.03,.04c-.24-.25-1.95-2.17-1.5-5.7,3,2.25,8.33,2.4,9.19,2.48-3.48-.74-7.73-1.64-9.45-4.65h-.02c-.28-1.01-.59-2.5-.66-3.6,2.4,1.97,6.1,3.16,9.11,3.62-3.2-.91-7.11-2.75-9.08-5.48l-.03,.03c-.22-.45-1.16-2.55-.79-5.11,2.16,2.13,6.66,4.02,9.47,4.88Z" style="fill:url(#radial-gradient-12);"></path>
            <path d="M26.65,44.82c-1.09-.52-2.05-1.1-3.06-2-1.31-1.65-3.95-5.48-3.37-8.91,2.14,1.92,4.43,3.73,6.85,5.43l1.11,.78c2.35,2.18,2.26,6.32,2.26,6.37-.14,9.25,2.53,20.77,9.19,27.29-1.9,1.78-2.8,2.14-3.53,2.47-1.59,.58-4.07-1.81-3.49-3.62l.11-.33c.84-.04,1.55-.18,2.14-.32-1.01,.07-1.6,.04-2.28-.04-1.87-.52-5.1-1.85-5.04-3.72v-.2c1.05,.27,1.91,.33,2.84,.33-1.54-.2-2.81-.57-4.26-1.46-.9-.81-1.96-2.34-1.47-4.81,1.05,.55,1.9,.83,2.93,1.08-1.48-.59-2.5-1.24-3.46-2.07-1.35-1.56-1.75-3.7-.55-6.11,.84,.67,1.57,1.09,2.49,1.5-1-.68-1.85-1.45-2.6-2.46-.17-1.13-.26-3.62,1.93-5.02l.36-.23c.78,.42,1.32,.63,2.25,.82-.81-.33-1.64-.78-2.35-1.47-.58-.52-1.69-2.44-1.22-3.81l.1-.28c.79,.38,1.4,.59,2.12,.8Zm1.16,32.35c2.07,.63,4.06,.5,5.77-.18,.07,.04,.14,.09,.21,.13-3.19,.95-6.54,.97-8.76-1.51,2.02-.12,4.48-1.26,6.22-2.44,0,.16,0,.32,.03,.49-1.64,1.2-3.38,1.89-5.2,2.33,1.71-.11,3.39-.41,5.47-1.34,.06,.15,.13,.3,.21,.44-1.33,.83-2.95,1.36-4.88,1.46,1.78,.23,3.5,.11,5.43-.65,.12,.15,.25,.29,.39,.42-1.63,.82-3.13,1.06-4.9,.85ZM6.31,41.42c-.22-.45-1.16-2.55-.79-5.11,2.16,2.13,6.66,4.02,9.47,4.88-2.83-1.25-7.73-3.95-9.19-6.67l-.05,.03c-.12-.24-1.27-2.73-.52-5.81,2.12,3.43,6.52,6.67,9.86,8.5-3.28-2.22-8.15-6.54-9.28-10.45h-.05c-.08-.36-.58-3,0-5.16,4.08,5.14,8,9.09,12.37,12.98-5.59-5.39-8.95-9.48-12.41-14.23-1.09-1.53-4.33-7.71-4.48-12.25-.06-1.73-.02-2.87,.04-3.62,2.06,7.3,6.15,15.18,11.94,22.16-3.95-4.48-6.79-8.95-9.36-14,3.37,7.31,7.56,13.68,13.5,19.63,.7,.7,.37,.38,1.55,1.51C10.94,26.6,4.42,18.42,1.68,7.94c2.47,10.86,9.03,19.49,17.18,27.2,0,.02,0,.04,0,.06-5.25-3.81-9.03-7.68-12.71-12.47,3.47,5.08,6.69,8.64,11.21,12.5-3.73-2.61-6.58-5.09-9.92-8.82,3.43,4.34,7.25,8.05,11.65,11.17-5.52-2.73-9.62-6.4-13.15-11.14,3.52,5.32,7.77,9.44,13.88,12.63,.02,.04,.04,.09,.06,.13-1.68-.58-3.09-1.24-4.5-2.01,1.3,1.03,2.56,1.91,4.13,2.79-5.61-2.25-9.69-5.02-14-9.54,4.16,4.86,8.91,8.62,15.71,11.24,.04,.06,.07,.11,.11,.17-6.54-1.9-11.4-5.06-15.77-9.31,4.54,4.91,9.75,8.5,16.7,10.63,0,0,.02,.02,.02,.03-2.3-.24-4.27-.74-6.24-1.42,2.53,1.29,4.94,2.09,7.08,2.51-.01,.06-.02,.13-.03,.19-5.86-.79-11.28-2.74-16.72-6,5.4,3.67,10.63,5.86,16.71,7.04,.02,.2,.06,.4,.11,.59-6.24-.53-11.73-2.66-16.77-5.86,5.08,3.64,10.4,5.98,17.16,6.94,.09,.19,.18,.37,.27,.54-3.93,.14-7.17-.74-10.46-2.51,3.22,2.12,6.58,3.28,10.34,3.48-.09,.09-.17,.18-.25,.28-5.26,.31-10.89-1.03-16.22-4.26,4.61,3.19,9.46,5.02,15.56,5.27-.1,.2-.19,.41-.27,.62-4.86,.24-9.95-.95-14.92-3.94,4.17,2.89,8.57,4.63,14.42,4.95,.08,0,.15,0,.22,0-.04,.19-.06,.37-.08,.55-1.7,.31-3.75,.26-5.91-.34,1.89,.88,3.72,1.33,5.87,1.35,0,.07,0,.14,0,.21-4.83,.03-9.32-.88-13.5-2.25,3.95,1.63,8.2,2.9,13.62,3.27,.02,.08,.03,.16,.05,.24-5.09,.39-9.5-.53-13.92-2.46,3.65,1.92,6.54,2.81,10.54,3.32,.39,.05,1.94,.18,2.99,.18-.05,.16-.1,.33-.13,.48-4.14,.82-8.77,.21-13.31-2.15,4.39,2.7,8.43,3.54,13.15,3.18,0,.07,0,.14-.01,.21-3.12,1.32-6.95,1.54-11.02,.13,3.81,1.71,7.33,1.9,11.06,.91,.02,.19,.06,.38,.09,.55-2.17,.85-4.82,1.05-6.82,.65-1.07-.19-1.52-.35-2.18-.57,.91,.42,1.26,.55,2.12,.81,2.05,.65,4.86,.71,7.17,.09,.07,.18,.15,.35,.25,.56-3.55,1.11-7.74,.75-11.66-1.54,3.8,2.66,7.92,3.42,12.23,2.46,.17,.23,.33,.42,.46,.57-3.8,1.78-8.62,1.27-12.31-2.01,3.39,3.52,8.11,4.5,12.27,3.12,0,.18,0,.36,.01,.53-2.85,1.64-6.61,1.98-10.33,.25,.72,.42,.57,.34,.92,.51,3.01,1.49,6.65,1.57,9.57,.3,.1,.41,.24,.79,.39,1.13-2.78,1.12-5.5,1.1-8.32,.01,2.59,1.35,5.13,1.68,7.88,1.11,.44-.1,.82-.21,.94-.25,.39,.56,.87,1.05,1.39,1.45-2.96,.87-5.24,.68-7.98-.2-1.76-.63-2.7-1.33-3.72-2.13,.62,.56,1.56,1.43,3.06,2.18,.55,.27,1.18,.55,1.71,.72,2.05,.76,5.11,.98,7.61,.28,.04,.13,.08,.26,.14,.39-2.07,1.14-4.67,1.69-7.56,1.31,2.37,.62,4.38,.64,6.85-.02,.27-.07,.95-.3,1.24-.43,.17,.21,.36,.4,.56,.59-2,.96-3.89,1.33-6.3,1.05,2.45,.63,4.85,.55,7.18-.39,.3,.2,.6,.37,.9,.53-.1,.05-.66,.3-.73,.33-1.95,.73-3.27,.86-5.3,.68-1.33-.17-2.23-.49-3.38-1.02,1.1,.64,1.96,1.05,3.33,1.35,1.85,.35,3.02,.36,4.96-.02,.6-.13,1.64-.48,2.26-.79,.28,.12,.54,.21,.75,.28,0,.07-.01,.14-.01,.21-2.19,1.02-5.01,1.77-7.4,1.15v.05s-.02,0-.02,0c-.05,0-4.71-.87-6.79-4.25,2.73,.75,6.63,.09,9.01-.79-2.44,.55-6.07,.67-8.59-.3-.79-.33-1.04-.52-1.32-.7l-.03,.05c-.24-.15-3.77-2.48-4.37-5.05,2.86,1.43,7.34,1.05,9.59,.52-2.08,.21-6.02,.08-8.61-1.36-.62-.37-.78-.5-1.22-.89l-.03,.04c-.3-.3-2.51-2.64-2.61-5.13,3.21,1.86,6.9,2.1,10.58,1.67-3.91,0-7.8-.73-10.66-3.37l-.03,.04c-.24-.25-1.95-2.17-1.5-5.7,3,2.25,8.33,2.4,9.19,2.48-3.48-.74-7.73-1.64-9.45-4.65h-.02c-.28-1.01-.59-2.5-.66-3.6,2.4,1.97,6.1,3.16,9.11,3.62-3.2-.91-7.11-2.75-9.08-5.48l-.03,.03Z" style="fill:#ffebcf;"></path>
          </g>
        </g>
      </g>
      <g>
        <path d="M87.14,66.16l11.16-1.3c.31-.04,.53-.32,.5-.63-.04-.31-.32-.53-.63-.5l-11.16,1.3c-.31,.04-.53,.32-.5,.63,.04,.31,.32,.53,.63,.5" style="fill:#ec2688;"></path>
        <path d="M83.24,60.96l7.53-3.39c.28-.13,.41-.46,.28-.75-.13-.28-.46-.41-.75-.28l-7.53,3.39c-.28,.13-.41,.46-.28,.75,.13,.28,.46,.41,.75,.28" style="fill:#ec2688;"></path>
        <path d="M85.14,72.56l8.24,.59c.31,.02,.58-.21,.6-.52s-.21-.58-.52-.6l-8.24-.59c-.31-.02-.58,.21-.6,.52s.21,.58,.52,.6" style="fill:#ec2688;"></path>
      </g>
    </g>
  </g>
</svg>
